<svg width="204" height="137" viewBox="0 0 204 137" fill="none" xmlns="http://www.w3.org/2000/svg">
<path d="M110.734 94.3483C54.0103 118.473 5.61418 126.797 0.555391 113.3C-2.47755 105.207 10.5606 91.291 36.3268 75.1199C36.4182 75.0614 36.5194 75.022 36.6246 75.0038C36.7298 74.9856 36.8369 74.9891 36.9398 75.0139C37.0427 75.0388 37.1395 75.0845 37.2244 75.1486C37.3094 75.2127 37.3809 75.2939 37.435 75.3875C37.4891 75.4811 37.5247 75.5852 37.5396 75.6941C37.5546 75.8029 37.5488 75.9143 37.5223 76.0218C37.4959 76.1293 37.4495 76.2308 37.3857 76.3206C37.3219 76.4105 37.242 76.4868 37.1506 76.5452L37.1479 76.5469L37.1389 76.5525C12.8673 91.786 -0.572124 105.621 2.06517 112.657C6.63986 124.863 56.1374 115.768 110.152 92.7954C164.166 69.8232 205.934 40.104 201.36 27.8982C198.711 20.8318 179.914 20.6878 152.302 27.5229C152.199 27.5492 152.091 27.5541 151.987 27.5373C151.882 27.5206 151.782 27.4825 151.693 27.4253C151.603 27.3681 151.526 27.2928 151.465 27.2039C151.404 27.1149 151.361 27.0139 151.339 26.9068C151.316 26.7996 151.314 26.6883 151.332 26.5792C151.351 26.4701 151.39 26.3654 151.447 26.2711C151.505 26.1767 151.579 26.0946 151.666 26.0293C151.753 25.964 151.852 25.9169 151.955 25.8906L151.958 25.89L151.963 25.8885C181.27 18.6338 199.825 19.1323 202.869 27.256C207.928 40.7536 167.457 70.224 110.734 94.3483Z" fill="white"/>
<path d="M75.5661 88.1577C27.5877 51.794 -2.8559 14.5684 6.25862 3.41001C11.7231 -3.27985 29.9156 0.844334 56.1709 14.7256C56.265 14.7743 56.3475 14.841 56.4137 14.9219C56.48 15.0027 56.5286 15.0962 56.557 15.1968C56.5853 15.2975 56.5927 15.4035 56.5788 15.5086C56.5649 15.6138 56.5299 15.7161 56.4758 15.8098C56.4218 15.9034 56.3498 15.9866 56.2638 16.0544C56.1779 16.1223 56.0798 16.1736 55.975 16.2053C55.8703 16.2371 55.761 16.2487 55.6534 16.2395C55.5458 16.2303 55.442 16.2006 55.3479 16.1518L55.3452 16.1504L55.3361 16.1456C30.6034 3.06971 12.2874 -1.43936 7.53568 4.37788C-0.706565 14.4685 30.9277 52.2469 76.6147 86.8739C122.302 121.501 167.862 142.23 176.105 132.139C180.876 126.298 171.942 110.131 152.788 89.9476C152.716 89.8721 152.659 89.7827 152.623 89.6846C152.587 89.5865 152.571 89.4816 152.577 89.3759C152.583 89.2702 152.61 89.1657 152.657 89.0686C152.704 88.9714 152.769 88.8833 152.85 88.8095C152.931 88.7357 153.025 88.6775 153.128 88.6383C153.23 88.5991 153.339 88.5797 153.447 88.5811C153.556 88.5825 153.662 88.6047 153.76 88.6465C153.858 88.6884 153.946 88.7489 154.018 88.8247L154.02 88.8266L154.024 88.8307C174.354 110.253 182.867 126.391 177.382 133.107C168.267 144.266 123.544 124.521 75.5661 88.1577Z" fill="white"/>
</svg>
